<svg xmlns="http://www.w3.org/2000/svg" width="16" height="16" viewBox="0 0 16 16">
  <defs>
    <style>
      .cls-1 {
        fill: #fff;
      }
    </style>
  </defs>
  <path id="copyright" class="cls-1" d="M8,0a8,8,0,1,0,8,8A8.009,8.009,0,0,0,8,0ZM8,13.818A5.818,5.818,0,1,1,13.818,8,5.825,5.825,0,0,1,8,13.818Zm2.161-4.49,1.179,1.1-.594.52a4.067,4.067,0,0,1-2.678,1.01,3.966,3.966,0,0,1-4-3.92,3.962,3.962,0,0,1,4-3.911,4.051,4.051,0,0,1,2.669,1l.573.5L10.18,6.757l-.5-.443a2.421,2.421,0,0,0-1.609-.591,2.362,2.362,0,0,0-2.4,2.312,2.366,2.366,0,0,0,2.4,2.321,2.425,2.425,0,0,0,1.609-.6Z"/>
</svg>
