<svg xmlns="http://www.w3.org/2000/svg" width="18" height="18" viewBox="0 0 18 18">
  <defs>
    <style>
      .cls-1 {
        fill: #ff6a7e;
      }
    </style>
  </defs>
  <path id="_ionicons_svg_md-settings" class="cls-1" d="M63.833,57.9a5.629,5.629,0,0,0,.046-.9c0-.315-.046-.585-.046-.9l1.933-1.485a.413.413,0,0,0,.092-.585l-1.841-3.105a.448.448,0,0,0-.552-.18l-2.3.9a6.7,6.7,0,0,0-1.565-.9l-.322-2.385a.493.493,0,0,0-.46-.36H55.134a.493.493,0,0,0-.46.36l-.368,2.385a7.8,7.8,0,0,0-1.565.9l-2.3-.9a.431.431,0,0,0-.552.18l-1.841,3.105a.544.544,0,0,0,.092.585L50.117,56.1c0,.315-.046.585-.046.9s.046.585.046.9l-1.933,1.485a.413.413,0,0,0-.092.585l1.841,3.105a.448.448,0,0,0,.552.18l2.3-.9a6.7,6.7,0,0,0,1.565.9l.368,2.385a.446.446,0,0,0,.46.36h3.682a.493.493,0,0,0,.46-.36l.369-2.385a7.789,7.789,0,0,0,1.565-.9l2.3.9a.431.431,0,0,0,.552-.18l1.841-3.105a.543.543,0,0,0-.092-.585Zm-6.858,2.25A3.151,3.151,0,1,1,60.2,57,3.167,3.167,0,0,1,56.975,60.151Z" transform="translate(-47.998 -48.001)"/>
</svg>
