<svg xmlns="http://www.w3.org/2000/svg" width="14" height="14" viewBox="0 0 14 14">
  <defs>
    <style>
      .cls-1 {
        fill: #fff;
      }
    </style>
  </defs>
  <path id="Path_1571" data-name="Path 1571" class="cls-1" d="M14,4.2v8.4A1.4,1.4,0,0,1,12.6,14H4.2a1.4,1.4,0,0,1-1.4-1.4V4.2A1.4,1.4,0,0,1,4.2,2.8h8.4A1.4,1.4,0,0,1,14,4.2ZM0,10.5V1.4A1.4,1.4,0,0,1,1.4,0h9.1a.7.7,0,0,1,.7.7h0a.7.7,0,0,1-.7.7H2.1a.7.7,0,0,0-.7.7v8.4a.7.7,0,0,1-.7.7h0A.7.7,0,0,1,0,10.5Z" transform="translate(14) rotate(90)"/>
</svg>
