<svg xmlns="http://www.w3.org/2000/svg" width="7.602" height="14.061" viewBox="0 0 7.602 14.061">
  <defs>
    <style>
      .cls-1 {
        fill: #fff;
      }
    </style>
  </defs>
  <g id="facebook-logo_1_" data-name="facebook-logo (1)" transform="translate(-22.077)">
    <path id="Path_1595" data-name="Path 1595" class="cls-1" d="M29.393,0,27.569,0A3.2,3.2,0,0,0,24.2,3.46v1.6H22.364a.287.287,0,0,0-.287.287V7.654a.287.287,0,0,0,.287.287H24.2v5.833a.287.287,0,0,0,.287.287h2.392a.287.287,0,0,0,.287-.287V7.941h2.144a.287.287,0,0,0,.287-.287V5.343a.287.287,0,0,0-.287-.287H27.162V3.7c0-.65.155-.98,1-.98h1.228a.287.287,0,0,0,.287-.287V.29A.287.287,0,0,0,29.393,0Z" transform="translate(0)"/>
  </g>
</svg>
