<svg xmlns="http://www.w3.org/2000/svg" width="10.059" height="11.653" viewBox="0 0 10.059 11.653">
  <defs>
    <style>
      .cls-1 {
        fill: #8f90a2;
      }
    </style>
  </defs>
  <path id="Path_1544" data-name="Path 1544" class="cls-1" d="M152.908,105.408c-.473-.33-.979-.683-1.474-1.032a.409.409,0,0,0-.036-.025.665.665,0,0,0-.194-.109l-.005,0c-1.323-.319-2.668-.647-3.97-.964l-3.541-.86-.093-.025a.906.906,0,0,0-.361-.046.252.252,0,0,0-.1.038l-.033.027a.4.4,0,0,0-.093.147l-.008.022v.126l.005.019c.746,2.089,1.512,4.208,2.25,6.258.569,1.578,1.159,3.214,1.736,4.819a.29.29,0,0,0,.262.191h.027a.308.308,0,0,0,.273-.15l2.165-3.154,1.583-2.3.648-.945c.355-.519.722-1.054,1.085-1.576l.019-.027V105.8a.412.412,0,0,0-.148-.4m-2.537,1.15c-.509.265-1.028.538-1.55.808l.913-.978c.38-.41.776-.833,1.165-1.248l.008-.008a1.252,1.252,0,0,1,.118-.128c.03-.03.063-.06.093-.1.2.139.407.281.6.421q.213.152.435.3c-.6.306-1.2.62-1.785.926m-1.307-.131c-.391.423-.8.857-1.2,1.286-.779-.945-1.575-1.9-2.346-2.829l-1.053-1.264,0,0c-.079-.09-.156-.188-.232-.281-.049-.063-.1-.123-.153-.186.317.082.637.158.951.232.276.066.563.134.845.2l4.76,1.155c-.528.563-1.058,1.133-1.572,1.685m-1.375,5.322c.03-.287.063-.582.09-.871.025-.232.049-.47.074-.7.038-.363.079-.74.112-1.109l.008-.066c.027-.235.055-.478.071-.721a.827.827,0,0,1,.1-.046,1.272,1.272,0,0,0,.123-.06q.947-.5,1.9-.988c.632-.328,1.28-.666,1.922-1-.585.847-1.173,1.7-1.742,2.534-.489.713-.992,1.447-1.493,2.171-.2.289-.4.584-.6.868-.219.317-.443.642-.662.967.027-.328.06-.658.1-.98m-3.811-7.954c-.036-.1-.074-.2-.107-.295.738.89,1.482,1.786,2.206,2.654.375.451.749.9,1.124,1.352.074.085.148.175.219.262.093.112.186.229.287.341-.033.281-.06.565-.09.838-.019.191-.038.382-.06.576v0c-.008.123-.025.246-.038.366-.019.167-.063.543-.063.543l0,.019c-.049.552-.109,1.109-.167,1.649-.025.224-.046.453-.071.683-.014-.041-.03-.082-.044-.12-.041-.109-.082-.224-.12-.336l-.293-.811q-1.39-3.862-2.78-7.725" transform="translate(-143 -102.34)"/>
</svg>
