<svg id="Group_1968" data-name="Group 1968" xmlns="http://www.w3.org/2000/svg" xmlns:xlink="http://www.w3.org/1999/xlink" width="9.131" height="15.239" viewBox="0 0 9.131 15.239">
  <defs>
    <style>
      .cls-1 {
        fill: #fff;
      }

      .cls-2 {
        opacity: 0.6;
      }

      .cls-3 {
        clip-path: url(#clip-path);
      }

      .cls-4 {
        opacity: 0.45;
      }

      .cls-5 {
        clip-path: url(#clip-path-2);
      }

      .cls-6 {
        opacity: 0.8;
      }

      .cls-7 {
        clip-path: url(#clip-path-3);
      }

      .cls-8 {
        clip-path: url(#clip-path-4);
      }

      .cls-9 {
        clip-path: url(#clip-path-5);
      }
    </style>
    <clipPath id="clip-path">
      <path id="Path_399" data-name="Path 399" class="cls-1" d="M720.6,306.4h9.128v4.891H720.6Z" transform="translate(-720.6 -306.4)"/>
    </clipPath>
    <clipPath id="clip-path-2">
      <path id="Path_401" data-name="Path 401" class="cls-1" d="M720.6,0h4.565V10.526H720.6Z" transform="translate(-720.6)"/>
    </clipPath>
    <clipPath id="clip-path-3">
      <path id="Path_403" data-name="Path 403" class="cls-1" d="M975,0h4.565V10.526H975Z" transform="translate(-975)"/>
    </clipPath>
    <clipPath id="clip-path-4">
      <path id="Path_405" data-name="Path 405" class="cls-1" d="M720.6,470.3h4.565v6.59H720.6Z" transform="translate(-720.6 -470.3)"/>
    </clipPath>
    <clipPath id="clip-path-5">
      <path id="Path_407" data-name="Path 407" class="cls-1" d="M975,470.3h4.566v6.59H975Z" transform="translate(-975 -470.3)"/>
    </clipPath>
  </defs>
  <g id="Group_23" data-name="Group 23" class="cls-2" transform="translate(0 5.634)">
    <g id="Group_22" data-name="Group 22" class="cls-3" transform="translate(0 0)">
      <path id="Path_398" data-name="Path 398" class="cls-1" d="M725.165,306.4l-4.565,2.128,4.565,2.764,4.563-2.764Z" transform="translate(-720.6 -306.4)"/>
    </g>
  </g>
  <g id="Group_25" data-name="Group 25" class="cls-4" transform="translate(0)">
    <g id="Group_24" data-name="Group 24" class="cls-5">
      <path id="Path_400" data-name="Path 400" class="cls-1" d="M720.6,7.762l4.565,2.764V0Z" transform="translate(-720.6)"/>
    </g>
  </g>
  <g id="Group_27" data-name="Group 27" class="cls-6" transform="translate(4.565)">
    <g id="Group_26" data-name="Group 26" class="cls-7" transform="translate(0)">
      <path id="Path_402" data-name="Path 402" class="cls-1" d="M975,0V10.526l4.563-2.764Z" transform="translate(-975)"/>
    </g>
  </g>
  <g id="Group_29" data-name="Group 29" class="cls-4" transform="translate(0 8.648)">
    <g id="Group_28" data-name="Group 28" class="cls-8" transform="translate(0 0)">
      <path id="Path_404" data-name="Path 404" class="cls-1" d="M720.6,470.3l4.565,6.59v-3.827Z" transform="translate(-720.6 -470.3)"/>
    </g>
  </g>
  <g id="Group_31" data-name="Group 31" class="cls-6" transform="translate(4.565 8.648)">
    <g id="Group_30" data-name="Group 30" class="cls-9" transform="translate(0 0)">
      <path id="Path_406" data-name="Path 406" class="cls-1" d="M975,473.064v3.827l4.566-6.59Z" transform="translate(-975 -470.3)"/>
    </g>
  </g>
</svg>
