<svg xmlns="http://www.w3.org/2000/svg" width="10.753" height="15.733" viewBox="0 0 10.753 15.733">
  <defs>
    <style>
      .cls-1 {
        fill: #fff;
        stroke: #fff;
        stroke-width: 0.3px;
      }
    </style>
  </defs>
  <path id="Path_1552" data-name="Path 1552" class="cls-1" d="M218.683,11.543l-3.332,4.711-1.764,7.522,5.1,3.006,5.125-3-1.731-7.52Zm3.254,4.737-.877,2.756-2.313-4V11.845Zm-3.254-1.1,2.326,4.018-1.417,4.454h-1.8l-1.4-4.487Zm-.063-3.33v3.186L216.337,19l-.851-2.721Zm-3.213,4.658.836,2.655-2.415,4.192Zm.907,2.843,1.345,4.3h-3.841Zm-2.44,4.427H217.7l.878,2.8Zm3.988,0h1.684l-.864,2.732Zm.929,2.8.891-2.8,3.851,0Zm.931-2.928,1.37-4.305.685,1.18,1.809,3.126Zm2.161-3.192-.73-1.261L222,16.507l1.589,6.893Z" transform="translate(-213.33 -11.285)"/>
</svg>
