<svg xmlns="http://www.w3.org/2000/svg" width="15.882" height="18.399" viewBox="0 0 15.882 18.399">
  <defs>
    <style>
      .cls-1 {
        fill: #fff;
      }
    </style>
  </defs>
  <path id="Path_1544" data-name="Path 1544" class="cls-1" d="M158.644,107.184c-.747-.522-1.545-1.078-2.327-1.63a.646.646,0,0,0-.056-.039,1.05,1.05,0,0,0-.307-.172l-.009,0c-2.089-.5-4.213-1.022-6.268-1.522l-5.59-1.358-.147-.039a1.43,1.43,0,0,0-.57-.073.4.4,0,0,0-.16.06l-.052.043a.632.632,0,0,0-.147.233l-.013.035v.2l.009.03c1.179,3.3,2.387,6.644,3.553,9.882.9,2.492,1.83,5.075,2.741,7.61a.457.457,0,0,0,.414.3h.043a.486.486,0,0,0,.432-.237l3.419-4.98q1.25-1.817,2.5-3.639c.341-.5.682-1,1.023-1.492.561-.819,1.14-1.664,1.714-2.488l.03-.043v-.052a.651.651,0,0,0-.233-.625M154.638,109c-.8.418-1.623.849-2.448,1.276l1.442-1.544c.6-.647,1.226-1.315,1.839-1.97l.013-.013a1.977,1.977,0,0,1,.186-.2c.048-.047.1-.095.147-.151.319.22.643.444.954.664q.337.239.686.479c-.95.483-1.9.979-2.819,1.462m-2.063-.207c-.617.668-1.256,1.354-1.891,2.031-1.23-1.492-2.487-3.005-3.7-4.467l-1.662-2,0,0c-.125-.142-.246-.3-.367-.444-.078-.1-.16-.194-.242-.293.5.129,1.006.25,1.5.366.436.1.889.211,1.334.323l7.516,1.824c-.833.888-1.671,1.789-2.482,2.66m-2.171,8.4c.047-.453.1-.918.142-1.375.039-.366.078-.742.117-1.1.06-.573.125-1.168.177-1.75l.013-.1c.043-.371.086-.754.112-1.138a1.305,1.305,0,0,1,.155-.073,2,2,0,0,0,.194-.095q1.5-.783,3-1.561c1-.517,2.02-1.052,3.035-1.582-.924,1.337-1.852,2.686-2.75,4-.773,1.125-1.567,2.285-2.357,3.428-.311.457-.635.923-.941,1.371-.345.5-.7,1.013-1.045,1.526.043-.517.095-1.039.151-1.548m-6.018-12.559c-.056-.155-.117-.315-.168-.466,1.166,1.406,2.34,2.82,3.484,4.191.591.711,1.183,1.418,1.774,2.134.117.134.233.276.345.414.147.177.294.362.453.539-.052.444-.095.892-.142,1.324-.03.3-.06.6-.1.91v0c-.013.194-.039.388-.06.578-.03.263-.1.858-.1.858l0,.03c-.078.871-.173,1.75-.263,2.6-.039.354-.073.716-.112,1.078-.022-.065-.048-.129-.069-.19-.065-.172-.13-.354-.19-.53l-.462-1.281q-2.2-6.1-4.39-12.2" transform="translate(-143 -102.34)"/>
</svg>
