<svg xmlns="http://www.w3.org/2000/svg" width="15.38" height="15.239" viewBox="0 0 15.38 15.239">
  <path id="Path_1591" data-name="Path 1591" d="M139.938,693.156l-7.849-4.477.032-2.177,7.813,4.472L143.7,688.8l-2.527-1.459-.945.545-1.772-1.018.95-.55-1.241-.718-.75.436-1.777-1.018.754-.436-4-2.313,7.544-4.354,7.117,4.058-1.909,1.109-5.208-2.986-3.768,2.172,2.109,1.218,1.077-.627,1.777,1.018-1.086.627,1.241.718.882-.514,1.777,1.018-.891.518,4.418,2.55-7.531,4.358Z" transform="translate(-132.089 -677.917)" fill="#fff"/>
</svg>
