<svg xmlns="http://www.w3.org/2000/svg" xmlns:xlink="http://www.w3.org/1999/xlink" width="38.438" height="30.796" viewBox="0 0 38.438 30.796">
  <defs>
    <style>
      .cls-1 {
        fill: url(#linear-gradient);
      }
    </style>
    <linearGradient id="linear-gradient" x1="0.5" x2="0.5" y2="1" gradientUnits="objectBoundingBox">
      <stop offset="0" stop-color="#f94f4f"/>
      <stop offset="1" stop-color="#8e3ddf"/>
    </linearGradient>
  </defs>
  <g id="Group_9" data-name="Group 9" transform="translate(4358.138 4353.339)">
    <path id="Path_1588" data-name="Path 1588" class="cls-1" d="M225.508,152.013l9.228,15.3-1.71-.01L235,170.591l6-.014-15.248-25.318c-.3.479-20.766,30.762-20.766,30.762l33.29.034L224.64,153.3C225.014,152.73,225.548,151.915,225.508,152.013Zm-13.619,20.2s6.565-9.7,10.569-15.676l9.391,15.593Z" transform="translate(-4560.693 -4498.598)"/>
    <path id="Path_1590" data-name="Path 1590" class="cls-1" d="M208.544,167.552l-19.867.044,10.513-15.575.823,1.365,2.125-3.148-2.756-4.722L182.145,170.9l28.373-.068Z" transform="translate(-4540.283 -4498.828)"/>
  </g>
</svg>
