<svg id="Group_1970" data-name="Group 1970" xmlns="http://www.w3.org/2000/svg" width="11.701" height="9.51" viewBox="0 0 11.701 9.51">
  <defs>
    <style>
      .cls-1 {
        fill: #fff;
      }
    </style>
  </defs>
  <path id="Path_1592" data-name="Path 1592" class="cls-1" d="M36.8,35.154a4.79,4.79,0,0,1-1.379.378A2.407,2.407,0,0,0,36.481,34.2a4.806,4.806,0,0,1-1.524.582,2.4,2.4,0,0,0-4.091,2.19,6.815,6.815,0,0,1-4.948-2.509,2.4,2.4,0,0,0,.743,3.205,2.384,2.384,0,0,1-1.087-.3c0,.01,0,.02,0,.03A2.4,2.4,0,0,0,27.5,39.756a2.41,2.41,0,0,1-1.084.042,2.4,2.4,0,0,0,2.243,1.667,4.846,4.846,0,0,1-3.554.994,6.827,6.827,0,0,0,10.51-5.752c0-.1,0-.208-.007-.31a4.868,4.868,0,0,0,1.2-1.243Z" transform="translate(-25.103 -34.028)"/>
</svg>
