<svg xmlns="http://www.w3.org/2000/svg" width="14.661" height="12.352" viewBox="0 0 14.661 12.352">
  <defs>
    <style>
      .cls-1 {
        fill: #fff;
      }
    </style>
  </defs>
  <path id="Path_1594" data-name="Path 1594" class="cls-1" d="M60.733,99.552l-13.409,5.225a.489.489,0,0,0,.039.925l3.407,1.006,1.272,4.035a.585.585,0,0,0,.976.234l1.762-1.8,3.457,2.537a.721.721,0,0,0,1.133-.434l2.289-10.945A.69.69,0,0,0,60.733,99.552Zm-1.681,2.429-6.228,5.508a.334.334,0,0,0-.111.213l-.24,2.132a.065.065,0,0,1-.126.012l-.987-3.179a.335.335,0,0,1,.143-.384l7.355-4.562A.162.162,0,0,1,59.052,101.981Z" transform="translate(-47.013 -99.504)"/>
</svg>
